# xmcd
#
# Track frame offsets: 
#        150
#        35891
#        51107
#        72704
#        89432
#        107314
#        132674
#        153417
#        180718
#        194337
#        207473
#        220178
#        240160
#        255208
#        270811
#        279184
#
# Disc length: 4050 seconds
#
# Revision: 0
# Processed by: cddbd v1.5.1PL0 Copyright (c) Steve Scherf et al.
# Submitted via: ExactAudioCopy v0.95a5
#
DISCID=e20fd010
DTITLE=The Grandmothers - 20 Year Antology of The Grandmothers (Volume
DTITLE=#2)
DYEAR=2002
DGENRE=Blues
TTITLE0=Brown Shoes Don't Make It
TTITLE1=You Didn't Try To Call Me
TTITLE2=Gingerwail
TTITLE3=One For The Girls
TTITLE4=Lonesome Cowboy Burt
TTITLE5=Manella Gorilla
TTITLE6=I Am The Walrus
TTITLE7=My Love Has Gone
TTITLE8=Teen-a-Peek-a
TTITLE9=Do It In The Name Of Love
TTITLE10=Dona
TTITLE11=The Air
TTITLE12=Taco Soup Medley
TTITLE13=A Bit Blue
TTITLE14=Lonley, Lonley Nights 
TTITLE15=The Willy Medley
EXTD=
EXTT0=
EXTT1=
EXTT2=
EXTT3=
EXTT4=
EXTT5=
EXTT6=
EXTT7=
EXTT8=
EXTT9=
EXTT10=
EXTT11=
EXTT12=
EXTT13=
EXTT14=
EXTT15=
PLAYORDER=
